# Blender 4.0.2
# www.blender.org
mtllib FirstMapCenter.mtl
o Cubo
v -0.993815 0.006059 9.001163
v -0.993815 1.006059 7.070652
v -0.993815 0.006059 -7.998837
v -0.993815 1.006059 -7.998837
v 1.006185 0.006059 9.001163
v 1.006185 1.006059 7.070652
v 1.006185 0.006059 -7.998837
v 1.006185 1.006059 -7.998837
v -0.993815 1.006059 9.001163
v 1.006185 1.006059 9.001163
v -0.993815 13.006060 9.001163
v -0.993815 13.006060 7.070652
v 1.006185 13.006060 7.070652
v -0.993815 11.506060 7.070652
v 1.006185 11.506060 7.070652
v 1.006185 13.006060 9.001163
vn -1.0000 -0.0000 -0.0000
vn -0.0000 -0.0000 -1.0000
vn 1.0000 -0.0000 -0.0000
vn -0.0000 -0.0000 1.0000
vn -0.0000 -1.0000 -0.0000
vn -0.0000 1.0000 -0.0000
vt 0.375000 0.000000
vt 0.625000 0.000000
vt 0.625000 0.250000
vt 0.375000 0.250000
vt 0.625000 0.500000
vt 0.375000 0.500000
vt 0.625000 0.750000
vt 0.375000 0.750000
vt 0.625000 1.000000
vt 0.375000 1.000000
vt 0.125000 0.500000
vt 0.125000 0.750000
vt 0.875000 0.500000
vt 0.875000 0.750000
vt 0.000000 0.000000
s 0
f 1/1/1 9/2/1 4/3/1 3/4/1
f 3/4/2 4/3/2 8/5/2 7/6/2
f 7/6/3 8/5/3 10/7/3 5/8/3
f 5/8/4 10/7/4 9/9/4 1/10/4
f 3/11/5 7/6/5 5/8/5 1/12/5
f 8/5/6 4/13/6 2/14/6 6/7/6
f 9/9/4 10/15/4 16/7/4 11/9/4
f 11/9/6 16/7/6 13/7/6 12/14/6
f 9/9/1 11/9/1 12/14/1 2/15/1
f 6/15/3 13/7/3 16/7/3 10/15/3
f 6/7/2 2/14/2 14/14/2 15/7/2
l 15 13
l 14 12
o Cubo.001
v -5.593815 4.006059 -9.929348
v -3.993815 4.006059 -9.929348
v -5.593815 4.006059 -8.398836
v -3.993815 4.006059 -8.398836
v -5.593815 8.506060 -8.398836
v -5.593815 8.506060 -9.929348
v -3.993815 19.506060 -8.398836
v -3.993815 19.506060 -9.929348
v -5.593815 19.506060 -9.929348
v -5.593815 19.506060 -8.398836
v -5.593815 9.506060 -8.398836
v -5.593815 9.506060 -9.929348
v -8.693815 8.506060 -8.398836
v -9.663830 8.506060 -9.929348
v -8.693815 9.506060 -8.398836
v -9.663830 9.506060 -9.929348
vn -0.0000 -1.0000 -0.0000
vn -1.0000 -0.0000 -0.0000
vn 1.0000 -0.0000 -0.0000
vn -0.0000 -0.0000 -1.0000
vn -0.0000 -0.0000 1.0000
vn -0.0000 1.0000 -0.0000
vn -0.8446 -0.0000 0.5353
vt 0.625000 1.000000
vt 0.875000 0.750000
vt 0.625000 0.750000
vt 0.000000 0.000000
s 0
f 19/16/7 17/17/7 18/18/7 20/18/7
f 21/16/8 22/17/8 17/17/8 19/16/8
f 20/18/9 18/18/9 24/18/9 23/18/9
f 18/18/10 17/17/10 25/17/10 24/18/10
f 19/16/11 20/18/11 23/18/11 26/16/11
f 23/18/12 24/18/12 25/17/12 26/16/12
f 28/17/8 27/16/8 26/16/8 25/17/8
f 27/19/12 28/19/12 32/17/12 31/16/12
f 22/17/7 21/16/7 29/16/7 30/17/7
f 30/17/10 32/19/10 28/19/10 22/17/10
f 29/16/13 31/16/13 32/17/13 30/17/13
f 29/16/11 21/16/11 27/19/11 31/16/11
