# Blender 4.0.2
# www.blender.org
mtllib FirstMapBetter.mtl
o Cubo
v -0.993815 0.006059 9.001163
v -0.993815 1.006059 7.070652
v -0.993815 0.006059 -7.998837
v -0.993815 1.006059 -7.998837
v 1.006185 0.006059 9.001163
v 1.006185 1.006059 7.070652
v 1.006185 0.006059 -7.998837
v 1.006185 1.006059 -7.998837
v -0.993815 1.006059 9.001163
v 1.006185 1.006059 9.001163
v -0.993815 23.006060 9.001163
v -0.993815 23.006060 7.070652
v 1.006185 23.006060 7.070652
v -0.993815 21.506060 7.070652
v 1.006185 21.506060 7.070652
v 1.006185 23.006060 9.001163
v -0.993815 23.006060 -1.929348
v 1.006185 23.006060 -1.929348
v -0.993815 21.506060 -1.929348
v 1.006185 21.506060 -1.929348
vn -1.0000 -0.0000 -0.0000
vn -0.0000 -0.0000 -1.0000
vn 1.0000 -0.0000 -0.0000
vn -0.0000 -0.0000 1.0000
vn -0.0000 -1.0000 -0.0000
vn -0.0000 1.0000 -0.0000
vt 0.375000 0.000000
vt 0.625000 0.000000
vt 0.625000 0.250000
vt 0.375000 0.250000
vt 0.625000 0.500000
vt 0.375000 0.500000
vt 0.625000 0.750000
vt 0.375000 0.750000
vt 0.625000 1.000000
vt 0.375000 1.000000
vt 0.125000 0.500000
vt 0.125000 0.750000
vt 0.875000 0.500000
vt 0.875000 0.750000
vt 0.000000 0.000000
s 0
f 1/1/1 9/2/1 4/3/1 3/4/1
f 3/4/2 4/3/2 8/5/2 7/6/2
f 7/6/3 8/5/3 10/7/3 5/8/3
f 5/8/4 10/7/4 9/9/4 1/10/4
f 3/11/5 7/6/5 5/8/5 1/12/5
f 8/5/6 4/13/6 2/14/6 6/7/6
f 9/9/4 10/15/4 16/7/4 11/9/4
f 11/9/6 16/7/6 13/7/6 12/14/6
f 9/9/1 11/9/1 12/14/1 2/15/1
f 6/15/3 13/7/3 16/7/3 10/15/3
f 6/7/2 2/14/2 14/14/2 15/7/2
f 12/14/6 13/7/6 18/7/6 17/14/6
f 15/7/5 14/14/5 19/14/5 20/7/5
f 14/14/1 12/14/1 17/14/1 19/14/1
f 15/7/3 20/7/3 18/7/3 13/7/3
f 18/7/2 20/7/2 19/14/2 17/14/2
o Cubo.001
v -5.593815 4.006059 -9.929348
v -3.993815 4.006059 -9.929348
v -5.593815 4.006059 -8.398836
v -3.993815 4.006059 -8.398836
v -5.593815 12.909336 -8.398836
v -5.593815 12.909336 -9.929348
v -3.993815 22.506060 -8.398836
v -3.993815 22.506060 -9.929348
v -5.593815 22.506060 -9.929348
v -5.593815 22.506060 -8.398836
v -5.593815 13.909336 -8.398836
v -5.593815 13.909336 -9.929348
v -8.693815 12.909336 -8.398836
v -9.663830 12.909336 -9.929348
v -8.693815 13.909336 -8.398836
v -9.663830 13.909336 -9.929348
vn -0.0000 -1.0000 -0.0000
vn -1.0000 -0.0000 -0.0000
vn 1.0000 -0.0000 -0.0000
vn -0.0000 -0.0000 -1.0000
vn -0.0000 -0.0000 1.0000
vn -0.0000 1.0000 -0.0000
vn -0.8446 -0.0000 0.5353
vt 0.625000 1.000000
vt 0.875000 0.750000
vt 0.625000 0.750000
vt 0.000000 0.000000
s 0
f 23/16/7 21/17/7 22/18/7 24/18/7
f 25/16/8 26/17/8 21/17/8 23/16/8
f 24/18/9 22/18/9 28/18/9 27/18/9
f 22/18/10 21/17/10 29/17/10 28/18/10
f 23/16/11 24/18/11 27/18/11 30/16/11
f 27/18/12 28/18/12 29/17/12 30/16/12
f 32/17/8 31/16/8 30/16/8 29/17/8
f 31/19/12 32/19/12 36/17/12 35/16/12
f 26/17/7 25/16/7 33/16/7 34/17/7
f 34/17/10 36/19/10 32/19/10 26/17/10
f 33/16/13 35/16/13 36/17/13 34/17/13
f 33/16/11 25/16/11 31/19/11 35/16/11
