# Exported from Figuro at https://www.figuro.io

mtllib newscene.mtl
o cube6
v -128 0 -128
v 128 0 -128
v 128 256 -128
v -128 256 -128
v 128 0 -128
v 128 256 -128
v -128 0 -128
v -128 256 -128
# 8 vertices
vt -0.5 2
vt 0.5 2
vt 0.5 1
vt -0.5 1
vt 0.5 2
vt 0.5 2
vt 0.5 1
vt 0.5 1
vt -0.5 2
vt 0.5 2
vt 0.5 1
vt -0.5 1
vt 0.5 2
vt 0.5 2
vt 0.5 1
vt 0.5 1
vt 0.5 1
vt 0.5 1
vt 0.5 1
vt 0.5 1
vt 0.5 2
vt 0.5 2
vt 0.5 2
vt 0.5 2
# 24 uvs
vn 0 0 0.3333333333333333
vn 0 0 0.3333333333333333
vn 0 0 0.3333333333333333
vn 0 0 0.3333333333333333
vn 0 0 -0.3333333333333333
vn 0 0 -0.3333333333333333
vn 0 0 -0.3333333333333333
vn 0 0 -0.3333333333333333
# 8 normals
usemtl 8c92ac
f 1/4/1 2/3/2 3/2/3 4/1/4 
f 2/8/2 5/7/5 6/6/6 3/5/3 
f 5/12/5 7/11/7 8/10/8 6/9/6 
f 7/16/7 1/15/1 4/14/4 8/13/8 
f 7/20/7 5/19/5 2/18/2 1/17/1 
f 4/24/4 3/23/3 6/22/6 8/21/8 
# 6 polygons
o cube8
v -128 0 -128
v -128 0 -128
v -128 256 -128
v -128 256 -128
v -128 0 128
v -128 256 128
v -128 0 128
v -128 256 128
# 8 vertices
vt 0.5 2
vt 0.5 2
vt 0.5 1
vt 0.5 1
vt -0.5 2
vt 0.5 2
vt 0.5 1
vt -0.5 1
vt -0.5 2
vt -0.5 2
vt -0.5 1
vt -0.5 1
vt -0.5 2
vt 0.5 2
vt 0.5 1
vt -0.5 1
vt 0.5 1
vt 0.5 1
vt -0.5 1
vt -0.5 1
vt -0.5 2
vt -0.5 2
vt 0.5 2
vt 0.5 2
# 24 uvs
vn 0.3333333333333333 0 0
vn -0.3333333333333333 0 0
vn -0.3333333333333333 0 0
vn 0.3333333333333333 0 0
vn -0.3333333333333333 0 0
vn -0.3333333333333333 0 0
vn 0.3333333333333333 0 0
vn 0.3333333333333333 0 0
# 8 normals
usemtl 6495ed
f 9/28/9 10/27/10 11/26/11 12/25/12 
f 10/32/10 13/31/13 14/30/14 11/29/11 
f 13/36/13 15/35/15 16/34/16 14/33/14 
f 15/40/15 9/39/9 12/38/12 16/37/16 
f 15/44/15 13/43/13 10/42/10 9/41/9 
f 12/48/12 11/47/11 14/46/14 16/45/16 
# 6 polygons
o cube7
v 127.99999999999991 255.9999999999999 -128
v 127.99999999999991 255.9999999999999 -128
v 127.99999999999997 8.526512829121202e-14 -128
v 127.99999999999997 8.526512829121202e-14 -128
v 127.99999999999991 255.9999999999999 128
v 127.99999999999997 8.526512829121202e-14 128
v 127.99999999999991 255.9999999999999 128
v 127.99999999999997 8.526512829121202e-14 128
# 8 vertices
vt 0.5 1.9999999999999996
vt 0.5 1.9999999999999996
vt 0.5 1.0000000000000004
vt 0.5 1.0000000000000004
vt -0.5 1.9999999999999996
vt 0.5 1.9999999999999996
vt 0.5 1.0000000000000004
vt -0.5 1.0000000000000004
vt -0.5 1.9999999999999996
vt -0.5 1.9999999999999996
vt -0.5 1.0000000000000004
vt -0.5 1.0000000000000004
vt -0.5 1.9999999999999996
vt 0.5 1.9999999999999996
vt 0.5 1.0000000000000004
vt -0.5 1.0000000000000004
vt 0.5 1.0000000000000004
vt 0.5 1.0000000000000004
vt -0.5 1.0000000000000004
vt -0.5 1.0000000000000004
vt -0.5 1.9999999999999996
vt -0.5 1.9999999999999996
vt 0.5 1.9999999999999996
vt 0.5 1.9999999999999996
# 24 uvs
vn 0.3333333333333333 7.401486830834384e-17 0
vn -0.3333333333333333 -7.401486830834384e-17 0
vn -0.3333333333333333 -7.401486830834384e-17 0
vn 0.3333333333333333 7.401486830834384e-17 0
vn -0.3333333333333333 -7.401486830834384e-17 0
vn -0.3333333333333333 -7.401486830834384e-17 0
vn 0.3333333333333333 7.401486830834384e-17 0
vn 0.3333333333333333 7.401486830834384e-17 0
# 8 normals
usemtl ccccff
f 20/52/20 19/51/19 18/50/18 17/49/17 
f 19/56/19 22/55/22 21/54/21 18/53/18 
f 22/60/22 24/59/24 23/58/23 21/57/21 
f 24/64/24 20/63/20 17/62/17 23/61/23 
f 24/68/24 22/67/22 19/66/19 20/65/20 
f 17/72/17 18/71/18 21/70/21 23/69/23 
# 6 polygons
o cube7
v -128.37469275450997 254.798722231548 -128
v -128.37469275450997 254.798722231548 -128
v 127.62072925846284 256.32970505306764 -128
v 127.62072925846284 256.32970505306764 -128
v -128.37469275450997 254.798722231548 128
v 127.62072925846284 256.32970505306764 128
v -128.37469275450997 254.798722231548 128
v 127.62072925846284 256.32970505306764 128
# 8 vertices
vt 0.5 1.9953075087169845
vt 0.5 1.9953075087169845
vt 0.5 2.0012879103635455
vt 0.5 2.0012879103635455
vt -0.5014636435723046 0.5
vt -0.5014636435723046 1.5
vt 0.4985184736658705 1.5
vt 0.4985184736658705 0.5
vt -0.5 1.9953075087169845
vt -0.5 1.9953075087169845
vt -0.5 2.0012879103635455
vt -0.5 2.0012879103635455
vt -0.5014636435723046 0.5
vt -0.5014636435723046 1.5
vt 0.4985184736658705 1.5
vt 0.4985184736658705 0.5
vt 0.5 2.0012879103635455
vt 0.5 2.0012879103635455
vt -0.5 2.0012879103635455
vt -0.5 2.0012879103635455
vt -0.5 1.9953075087169845
vt -0.5 1.9953075087169845
vt 0.5 1.9953075087169845
vt 0.5 1.9953075087169845
# 24 uvs
vn -0.0019934672155203716 0.3333273724127255 0
vn 0.0019934672155203716 -0.3333273724127255 0
vn 0.0019934672155203716 -0.3333273724127255 0
vn -0.0019934672155203716 0.3333273724127255 0
vn 0.0019934672155203716 -0.3333273724127255 0
vn 0.0019934672155203716 -0.3333273724127255 0
vn -0.0019934672155203716 0.3333273724127255 0
vn -0.0019934672155203716 0.3333273724127255 0
# 8 normals
usemtl ccccff
f 28/76/28 27/75/27 26/74/26 25/73/25 
f 27/80/27 30/79/30 29/78/29 26/77/26 
f 30/84/30 32/83/32 31/82/31 29/81/29 
f 32/88/32 28/87/28 25/86/25 31/85/31 
f 32/92/32 30/91/30 27/90/27 28/89/28 
f 25/96/25 26/95/26 29/94/29 31/93/31 
# 6 polygons
o cube7
v -126.84473986699592 -1.024484661414391 -128
v -126.84473986699592 -1.024484661414391 -128
v 129.15068214597696 0.5064981601052807 -128
v 129.15068214597696 0.5064981601052807 -128
v -126.84473986699592 -1.024484661414391 128
v 129.15068214597696 0.5064981601052807 128
v -126.84473986699592 -1.024484661414391 128
v 129.15068214597696 0.5064981601052807 128
# 8 vertices
vt 0.5 0.99599810679135
vt 0.5 0.99599810679135
vt 0.5 1.0019785084379111
vt 0.5 1.0019785084379111
vt -0.4954872651054528 0.5
vt -0.4954872651054528 1.5
vt 0.5044948521327225 1.5
vt 0.5044948521327225 0.5
vt -0.5 0.99599810679135
vt -0.5 0.99599810679135
vt -0.5 1.0019785084379111
vt -0.5 1.0019785084379111
vt -0.4954872651054528 0.5
vt -0.4954872651054528 1.5
vt 0.5044948521327225 1.5
vt 0.5044948521327225 0.5
vt 0.5 1.0019785084379111
vt 0.5 1.0019785084379111
vt -0.5 1.0019785084379111
vt -0.5 1.0019785084379111
vt -0.5 0.99599810679135
vt -0.5 0.99599810679135
vt 0.5 0.99599810679135
vt 0.5 0.99599810679135
# 24 uvs
vn -0.001993467215520408 0.3333273724127255 0
vn 0.001993467215520408 -0.3333273724127255 0
vn 0.001993467215520408 -0.3333273724127255 0
vn -0.001993467215520408 0.3333273724127255 0
vn 0.001993467215520408 -0.3333273724127255 0
vn 0.001993467215520408 -0.3333273724127255 0
vn -0.001993467215520408 0.3333273724127255 0
vn -0.001993467215520408 0.3333273724127255 0
# 8 normals
usemtl ccccff
f 36/100/36 35/99/35 34/98/34 33/97/33 
f 35/104/35 38/103/38 37/102/37 34/101/34 
f 38/108/38 40/107/40 39/106/39 37/105/37 
f 40/112/40 36/111/36 33/110/33 39/109/39 
f 40/116/40 38/115/38 35/114/35 36/113/36 
f 33/120/33 34/119/34 37/118/37 39/117/39 
# 6 polygons